<svg width="24" height="24" xmlns="http://www.w3.org/2000/svg">
 <title>book-open-variant-outline</title>

 <g>
  <title>background</title>
  <rect fill="none" id="canvas_background" height="602" width="802" y="-1" x="-1"/>
 </g>
 <g>
  <title>Layer 1</title>
  <path fill="#ffffff" id="svg_1" d="m12,21.5c-1.35,-0.85 -3.8,-1.5 -5.5,-1.5c-1.65,0 -3.35,0.3 -4.75,1.05c-0.1,0.05 -0.15,0.05 -0.25,0.05c-0.25,0 -0.5,-0.25 -0.5,-0.5l0,-14.6c0.6,-0.45 1.25,-0.75 2,-1c1.11,-0.35 2.33,-0.5 3.5,-0.5c1.95,0 4.05,0.4 5.5,1.5c1.45,-1.1 3.55,-1.5 5.5,-1.5c1.17,0 2.39,0.15 3.5,0.5c0.75,0.25 1.4,0.55 2,1l0,14.6c0,0.25 -0.25,0.5 -0.5,0.5c-0.1,0 -0.15,0 -0.25,-0.05c-1.4,-0.75 -3.1,-1.05 -4.75,-1.05c-1.7,0 -4.15,0.65 -5.5,1.5m-1,-14c-1.36,-0.6 -3.16,-1 -4.5,-1c-1.2,0 -2.4,0.15 -3.5,0.5l0,11.5c1.1,-0.35 2.3,-0.5 3.5,-0.5c1.34,0 3.14,0.4 4.5,1l0,-11.5m2,11.5c1.36,-0.6 3.16,-1 4.5,-1c1.2,0 2.4,0.15 3.5,0.5l0,-11.5c-1.1,-0.35 -2.3,-0.5 -3.5,-0.5c-1.34,0 -3.14,0.4 -4.5,1l0,11.5m1,-2.65c0.96,-0.35 2.12,-0.52 3.5,-0.52c1.04,0 1.88,0.08 2.5,0.24l0,-1.5c-0.87,-0.16 -1.71,-0.24 -2.5,-0.24c-1.34,0 -2.5,0.17 -3.5,0.43l0,1.59m0,-2.66c0.96,-0.35 2.12,-0.53 3.5,-0.53c1.04,0 1.88,0.08 2.5,0.24l0,-1.5c-0.87,-0.16 -1.71,-0.23 -2.5,-0.23c-1.28,0 -2.45,0.15 -3.5,0.45l0,1.57m0,-2.69c0.96,-0.33 2.12,-0.5 3.5,-0.5c0.91,0 1.76,0.09 2.5,0.28l0,-1.55c-0.87,-0.15 -1.71,-0.23 -2.5,-0.23c-1.32,0 -2.5,0.15 -3.5,0.46l0,1.54z"/>
 </g>
</svg>